<?xml version="1.0" standalone="no"?>
<!DOCTYPE svg PUBLIC "-//W3C//DTD SVG 1.1//EN" "http://www.w3.org/Graphics/SVG/1.1/DTD/svg11.dtd" >
<svg xmlns="http://www.w3.org/2000/svg">
<metadata>
Created by FontForge 20120731 at Fri May 26 08:37:55 2017
 By admin
</metadata>
<defs>
<font id="xafont" horiz-adv-x="1024" >
  <font-face 
    font-family="xafont"
    font-weight="500"
    font-stretch="normal"
    units-per-em="1024"
    panose-1="2 0 6 3 0 0 0 0 0 0"
    ascent="896"
    descent="-128"
    x-height="792"
    bbox="-0.0315781 -128 1232 896"
    underline-thickness="0"
    underline-position="0"
    unicode-range="U+0078-E66E"
  />
<missing-glyph 
 />
    <glyph glyph-name=".notdef" 
 />
    <glyph glyph-name=".notdef" 
 />
    <glyph glyph-name=".null" horiz-adv-x="0" 
 />
    <glyph glyph-name="nonmarkingreturn" horiz-adv-x="341" 
 />
    <glyph glyph-name="x" unicode="x" horiz-adv-x="1001" 
d="M281 543q-27 -1 -53 -1h-83q-18 0 -36.5 -6t-32.5 -18.5t-23 -32t-9 -45.5v-76h912v41q0 16 -0.5 30t-0.5 18q0 13 -5 29t-17 29.5t-31.5 22.5t-49.5 9h-133v-97h-438v97zM955 310v-52q0 -23 0.5 -52t0.5 -58t-10.5 -47.5t-26 -30t-33 -16t-31.5 -4.5q-14 -1 -29.5 -0.5
t-29.5 0.5h-32l-45 128h-439l-44 -128h-29h-34q-20 0 -45 1q-25 0 -41 9.5t-25.5 23t-13.5 29.5t-4 30v167h911zM163 247q-12 0 -21 -8.5t-9 -21.5t9 -21.5t21 -8.5q13 0 22 8.5t9 21.5t-9 21.5t-22 8.5zM316 123q-8 -26 -14 -48q-5 -19 -10.5 -37t-7.5 -25t-3 -15t1 -14.5
t9.5 -10.5t21.5 -4h37h67h81h80h64h36q23 0 34 12t2 38q-5 13 -9.5 30.5t-9.5 34.5q-5 19 -11 39h-368zM336 498v228q0 11 2.5 23t10 21.5t20.5 15.5t34 6h188q31 0 51.5 -14.5t20.5 -52.5v-227h-327z" />
    <glyph glyph-name="close" unicode="&#xe639;" 
d="M552 383l231 232q8 8 8 19.5t-8 19.5t-19 8t-19 -8l-232 -232l-232 232q-8 8 -19 8t-19 -8t-8 -19.5t8 -19.5l231 -232l-231 -232q-8 -8 -8 -19t8 -19t19 -8t19 8l232 231l232 -231q8 -8 19 -8t19 8t8 19t-8 19z" />
    <glyph glyph-name="yes" unicode="&#xe646;" 
d="M511 831q-91 0 -174 -35t-142.5 -95t-95 -143t-35.5 -173.5t35.5 -173.5t95 -142.5t142.5 -95t174 -35.5t173.5 35.5t142.5 95t95.5 142.5t35.5 173.5t-35.5 173.5t-95.5 143t-142.5 95t-173.5 35zM510.5 26q-97.5 0 -180 48t-130 130.5t-47.5 180t47.5 180t130 130.5
t180 48t180 -48t130.5 -130.5t48 -180t-48 -180t-130.5 -130.5t-180 -48zM677 524q-11 11 -22 0l-174 -175q-11 -11 -23 0l-63 64q-11 11 -22 0l-39 -39q-12 -11 -1 -23l100 -100q11 -11 27 -11h18q16 0 27 11l211 212q11 11 0 22z" />
    <glyph glyph-name="close2" unicode="&#xe618;" 
d="M512 896q-139 0 -257 -68.5t-186.5 -186.5t-68.5 -257t68.5 -257t186.5 -186.5t257 -68.5t257 68.5t186.5 186.5t68.5 257t-68.5 257t-186.5 186.5t-257 68.5zM729 219v0v0q11 -11 11 -26t-11 -26t-26 -11t-26 11l-165 165l-165 -165v0v0q-11 -11 -26.5 -11t-26 10.5
t-10.5 26t11 26.5v0v0l165 165l-165 165q-11 11 -11 26t11 26t26 11t26 -11l165 -165l165 165q11 11 26.5 11t26 -10.5t10.5 -26t-11 -26.5v0v0l-165 -165z" />
    <glyph glyph-name="fail" unicode="&#xe65c;" 
d="M960 632q-60 109 -164 178q-6 5 -13 7q-115 79 -271 79q-46 0 -92 -8v0q-7 -2 -12 -3h-1.5h-1.5q-6 -2 -9 -2q-1 -1 -4 -1l-2 -1q-1 0 -3 -0.5t-3 -0.5q-4 -1 -10 -3h-1h-1q-106 -31 -188 -100q-2 4 -20.5 -13t-45.5 -51.5t-48 -70.5q-70 -119 -70 -258v0q0 -41 7 -82
l-1 2q1 -7 2 -11q0 -1 0.5 -2l0.5 -1q1 -7 2 -10q0 -1 0.5 -3l0.5 -2q1 -6 1 -7q1 -2 2 -8q0 -1 0.5 -2t0.5 -2q2 -5 3 -11v-1q31 -106 100 -188q-5 -2 12.5 -20.5t52 -45.5t69.5 -48q120 -70 259 -70q53 0 104 11h1q51 11 96 30q-39 -13 -58 -19t-21.5 -7l-2.5 -1q7 2 9 2
q1 1 3.5 1.5l2.5 0.5q6 1 6 2q3 0 9 2l1.5 0.5l1.5 0.5q69 22 128 60l-116 -56q70 24 127 64l-115 -60q118 44 201 134q-74 -65 -74 -63l1 2q86 58 141.5 155.5t64.5 212.5h0.5t0.5 1v10v1.5v1.5q1 6 1 13v0q3 139 -64 261zM950 362v-1q-6 -110 -62.5 -203t-148.5 -149v0
q-69 -43 -152 -58q39 14 65 23t39.5 13.5t19.5 7t7 2.5t0 0q-65 -36 -142 -48q37 12 61 19.5t36 11t18.5 5.5l6.5 2v-1v0q-63 -30 -136 -39l115 30v0q-10 -4 -14 -5q-1 -1 -3.5 -1.5t-3.5 -1.5q-10 -3 -13 -4q-2 -1 -5 -1.5t-4 -0.5q-10 -3 -12 -4q-1 0 -11 -3l-4 -0.5
t-6 -1.5q-3 0 -13 -2q-1 0 -4 -0.5t-4 -1.5q-4 0 -15 -1q0 -1 -2.5 -1h-4.5q-19 -2 -40 -3l19 1q-11 -1 -23 -1h2h-3q-10 0 -19 1h1q-104 4 -195 54q-54 27 -105 83l29 -30q-13 9 -42 44l26 -30q-11 6 -46 51q-2 2 -4 5l6 -14q-12 10 -41 71q-18 35 -29 69l31 -71v0
q-37 66 -48 144q11 -37 18.5 -61.5t11.5 -37t6 -19l2 -6.5v0v0q-31 63 -40 136l31 -115v0q-4 10 -6 14q-1 1 -1.5 3.5l-0.5 2.5q-4 10 -5 14q-1 2 -1.5 4.5t-0.5 3.5q-3 10 -4 13q0 2 -0.5 3.5t-1 3.5t-0.5 3l-3 11q0 2 -2 12q0 1 -0.5 4.5t-1.5 4.5q0 4 -1 14q-1 1 -1 3.5
v4.5q-2 18 -2 40v-19q-1 11 -1 22v-1v3q0 9 1 19v-1q4 106 55 198q31 59 92 113l-28 -25q18 20 54 47l-98 -104v0q82 119 216 168l-80 -39q68 43 149 57l-128 -45v0q65 36 141 47l-120 -36v0q9 4 14 6q1 1 4 2l3 1q10 4 13 5q2 1 5.5 2l3.5 1q10 4 11 4q2 0 12 3l3.5 1
t5.5 2q3 1 13 3q1 0 4 0.5t4 1.5q4 1 14 2q1 1 3.5 1t3.5 1q5 0 15 2h3.5h3.5q19 2 41 3l-20 -1q11 1 23 1h-2q119 1 223.5 -59t164.5 -167q43 -78 52 -166v-0.5t1 -0.5q2 -22 2 -46q0 -12 -1 -23v1zM517 311q-68 0 -126 -32.5t-95 -88.5q-11 -17 -1.5 -35t29.5 -18h3
q17 0 27 15q27 40 70 64t93 24q51 0 94 -23.5t70 -64.5q10 -15 28 -15h1q20 0 29.5 18t-1.5 35q-37 56 -95 88.5t-126 32.5zM356 456q27 0 46.5 19t19.5 45.5t-19.5 46t-46.5 19.5t-46.5 -19.5t-19.5 -46t19.5 -45.5t46.5 -19zM707 586q-27 0 -46.5 -19.5t-19.5 -46
t19.5 -45.5t46.5 -19t46.5 19t19.5 45.5t-19.5 46t-46.5 19.5z" />
    <glyph glyph-name="menu" unicode="&#xe66e;" horiz-adv-x="1632" 
d="M600 331h-105q-44 0 -74.5 -30.5t-30.5 -74.5v-105q0 -44 30.5 -75t74.5 -31h105q44 0 75 31t31 75v105q0 44 -31 74.5t-75 30.5zM547.5 105q-28.5 0 -48 20t-19.5 48.5t19.5 48t48 19.5t48.5 -19.5t20 -48t-20 -48.5t-48.5 -20zM864 647h315q22 0 37.5 15.5t15.5 37.5
t-15.5 37.5t-37.5 15.5h-315q-22 0 -37.5 -15.5t-15.5 -37.5t15.5 -37.5t37.5 -15.5zM600 753h-105q-44 0 -74.5 -31t-30.5 -75v-105q0 -44 30.5 -74.5t74.5 -30.5h105q44 0 75 30.5t31 74.5v105q0 44 -31 75t-75 31zM547.5 527q-28.5 0 -48 19.5t-19.5 48t19.5 48.5t48 20
t48.5 -20t20 -48.5t-20 -48t-48.5 -19.5zM1179 331h-315q-22 0 -37.5 -15t-15.5 -37t15.5 -37.5t37.5 -15.5h315q22 0 37.5 15.5t15.5 37.5t-15.5 37t-37.5 15zM1179 542h-315q-22 0 -37.5 -15.5t-15.5 -37t15.5 -37t37.5 -15.5h315q22 0 37.5 15.5t15.5 37t-15.5 37
t-37.5 15.5zM1179 121h-315q-22 0 -37.5 -15.5t-15.5 -37.5t15.5 -37.5t37.5 -15.5h315q22 0 37.5 15.5t15.5 37.5t-15.5 37.5t-37.5 15.5z" />
    <glyph glyph-name="label" unicode="&#xe60b;" 
d="M655 585q0 -24 17 -41t41 -17t41 17t17 41t-17 41t-41 17t-41 -17t-17 -41zM927.5 800q-31.5 32 -76.5 29l-322 -16q-39 -2 -66 -29l-352 -352q-46 -46 -46 -112t46 -112l225 -225q46 -46 112 -46t112 46l352 352q27 27 29 66l16 322q2 45 -29.5 77zM855 406
q-1 -6 -5 -10l-351 -351q-21 -22 -51 -21.5t-51 21.5l-224 224q-21 21 -21 51t21 51l351 351q4 4 10 5l322 16q6 0 10 -4q5 -5 5 -11z" />
    <glyph glyph-name="home" unicode="&#xe60c;" 
d="M988 386l-154 145l0.5 -0.5l0.5 -0.5q16 0 27.5 11.5t11.5 27.5v181h-197q-15 0 -26 -11t-12 -27l-127 119l-476 -444q-12 -10 -12.5 -26t10.5 -28q10 -11 26.5 -11.5t27.5 9.5l424 396l424 -397q11 -10 26 -10q16 0 27 11t11 27v2q0 16 -12 26v0zM797 673v-104
q0 -1 0.5 -2.5t0.5 -2.5l-117 109h116v0zM835.5 381q-15.5 0 -27 -11t-11.5 -27v-330h-149v241h-272v-241h-149v330q0 16 -11.5 27t-27 11t-27 -11t-11.5 -27v-406h303v240h118v-240h303v406q0 16 -11.5 27t-27 11z" />
    <glyph glyph-name="call" unicode="&#xe60d;" 
d="M818 308q-40 45 -93 45q-23 0 -55.5 -16.5t-55.5 -40.5l-49 -47q-16 10 -35 13q-85 88 -129 145q-26 35 -40 64q13 11 32 32l19 19q46 46 51.5 105t-31.5 99l-73 80q-7 7 -19 20t-18 20q-40 42 -91.5 42t-94.5 -40l-71 -71q-47 -47 -55 -117q-6 -73 25 -170
q44 -136 154 -281q138 -177 324 -275q109 -56 191 -62h13h7q83 0 139 61l4 4q8 10 30 32l3 3q8 7 19 18q5 5 7 8q40 43 40.5 95t-38.5 95zM895 30l-30 -30q-24 -24 -32 -33l-3 -4q-42 -47 -106 -47h-7h-9q-75 7 -173 58q-176 93 -308 262q-103 133 -148 269q-30 85 -23 153
q5 53 42 91l75 75q28 26 62 26q33 0 60 -29q6 -6 19 -20q180 -191 272 -436l-181 337q25 -27 19.5 -69t-38.5 -75l-72 -72l6 -14q14 -35 50 -87q79 -105 167 -164q10 -7 16 -10l2 -1v0l2 -1h1q1 -1 2 -1q2 -1 3 -2l15 -8l69 70q16 17 40 29.5t38 12.5q35 -2 61 -30l110 -120
q28 -30 27.5 -65t-28.5 -65v0zM997 793q-9 10 -22 10q-14 0 -27 -12l-257 -255q-7 -8 -7 -19.5t7.5 -19t18.5 -7.5t19 8l212 211l-17 -124q-2 -14 6 -24q7 -8 16 -10q12 -1 21 6t11 18l27 188q2 19 -8 30zM628 569q14 0 27 11l257 256q7 7 7 18.5t-7.5 19t-19 7.5t-18.5 -7
l-212 -211l18 126q2 11 -5 20q-7 10 -18 11q-13 2 -22 -5t-10 -19l-28 -187q-1 -19 9 -31q9 -9 22 -9z" />
    <glyph glyph-name="customer" unicode="&#xe60e;" 
d="M797 250h-262q-12 0 -20 -8t-8 -20t8 -20t20 -8h262q11 0 19.5 8.5t8.5 19.5q0 12 -8 20t-20 8zM797 125h-262q-12 0 -20 -8t-8 -20v0q0 -12 8 -19.5t20 -7.5h262v0q12 0 20 8t8 19q0 12 -8 20t-20 8v0zM872 349h-191q-56 54 -133 79q40 29 63 73.5t23 93.5
q0 84 -59.5 144t-143 60t-143 -60.5t-59.5 -145.5q0 -50 22.5 -93.5t62.5 -72.5q-97 -32 -157 -107t-60 -167q0 -11 8.5 -19t19.5 -8q12 0 20 7.5t8 19.5q0 98 82 167t198 69q85 0 155 -40h-112q-30 0 -51 -21.5t-21 -51.5v-235q0 -30 21 -51t51 -21h378q30 0 51.5 21.5
t21.5 50.5v235q0 42 -17 57.5t-38 15.5zM432 742q59 0 103 -44t44 -105q0 -57 -37 -99t-92 -48q-21 1 -34 0q-56 6 -93.5 48t-37.5 99q0 62 43 105.5t104 43.5zM870 277v-236q0 -6 -5 -11t-11 -5h-378q-6 0 -10.5 4.5t-4.5 11.5v236q0 6 4.5 11t10.5 5h378q7 0 11.5 -4.5
t4.5 -11.5z" />
    <glyph glyph-name="menu2" unicode="&#xe610;" 
d="M825 823h-626q-60 0 -102 -42t-42 -101v-592q0 -59 42 -101t102 -42h626q60 0 102 42t42 101v592q0 60 -41.5 101.5t-102.5 41.5zM878 666v-580q0 -26 -18 -43.5t-43 -17.5h-610q-25 0 -43 17.5t-18 43.5v580q0 25 18 43t43 18h610q25 0 43 -18t18 -43zM220 547
q-8 -8 -7 -17q1 -6 5 -9l2 -2l72 -71q5 -6 18 -6q5 0 10 3l10 5l120 119q8 7 7 17q-1 6 -5 9q-29 14 -44 5l-107 -107l-54 54q-6 6 -15 6q-8 0 -11 -4zM815 550h-311q-27 0 -27 -26t27 -26h311q26 0 26 26q0 12 -7.5 19t-18.5 7zM319 342q-39 0 -65 -26t-26 -65t26 -65
t65 -26t65 26t26 65q0 42 -27.5 66.5t-63.5 24.5zM319 207q-22 0 -35 13.5t-13 35t13 35t35 13.5t35.5 -13.5t13.5 -34.5q0 -22 -15 -35.5t-34 -13.5zM815 282h-311q-27 0 -27 -26q0 -12 7.5 -19.5t19.5 -7.5h311q26 0 26 27q0 11 -7.5 18.5t-18.5 7.5z" />
    <glyph glyph-name="jurisdiction" unicode="&#xe611;" 
d="M807 770q-38 -14 -73 -14q-108 0 -194 64l-31 23l-30 -23q-86 -64 -195 -64q-34 0 -72 14l-68 23v-425q0 -63 39 -140q38 -75 107 -151q61 -68 130 -120q26 -20 50 -34q16 -10 35 -10h1q20 0 37 11q23 14 49 34q71 54 133 121q71 77 110 152q40 76 40 137v425zM773 368
q0 -35 -29 -89q-33 -63 -95 -130q-55 -61 -119 -109q-13 -10 -25 -18q-11 7 -24 17q-61 46 -115 106q-60 67 -92 130q-28 55 -28 93v289q19 -3 38 -3q71 0 137 22q47 16 88 41q42 -25 89 -41q66 -22 136 -22q19 0 39 3v-289zM509.5 632q-66.5 0 -114 -47.5t-47.5 -113.5
q0 -53 31 -95t79 -59v-3v-139q0 -21 15 -36t36.5 -15t36.5 15t15 36v139v3q48 17 79 59t31 95q0 66 -47.5 113.5t-114 47.5zM509.5 412q-24.5 0 -42 17t-17.5 41.5t17.5 42t42 17.5t41.5 -17.5t17 -42t-17 -41.5t-41.5 -17zM509 412z" />
    <glyph glyph-name="statistics2" unicode="&#xe612;" 
d="M742 810l89 -89l-286 -248l-207 194l-5 5v0h-1l-4 -4l-261 -227v-85v-1l264 229l214 -200l15 16l317 274l80 -80v216h-215zM67 -42h103v366l-103 -96v-270zM567 -42h103v448l-103 -90v-358zM317 406v-448h103v454l-50 56zM817 492v-534h103v548l-50 40z" />
    <glyph glyph-name="user" unicode="&#xe613;" 
d="M27 55q0 -13 9 -22t22 -9t22 9t9 22v0q0 96 63.5 166.5t157.5 81.5l27 -53l-28 -227h62l-28 227l26 52q43 -5 74 -19q13 57 46 104q-93 12 -179.5 -7.5t-155.5 -71.5t-102 -129q-25 -58 -25 -124v0zM340 807q-78 0 -133 -55t-55 -133t55 -133t133 -55t133 55t55 133
t-55 133t-133 55zM340 493q-52 0 -89 37t-37 89t37 88.5t89 36.5t88.5 -36.5t36.5 -88.5t-36.5 -89t-88.5 -37zM992 264q-4 25 -22 24h-2q-27 0 -46 20.5t-19 48.5q0 3 0.5 5.5l1 5l1 5t1 4.5t1 3.5t1 2.5l0.5 1q2 5 2 12q0 16 -12 25l-1 1l-63 37q-6 2 -12 2q-14 0 -24 -10
q-27 -30 -50.5 -30t-51.5 31q-10 10 -24 10v0v0q-7 0 -12 -2h-1l-65 -39q-12 -9 -12 -25q0 -7 2 -13q5 -12 6 -26q0 -28 -19.5 -48.5t-45.5 -20.5h-3q-17 1 -21 -24q-6 -33 -6 -52q0 -18 6 -52q4 -25 21 -25h3q26 0 45.5 -20.5t19.5 -48.5q0 -3 -0.5 -5.5l-1 -5l-1 -5
t-1 -4.5t-1 -3.5t-1 -2l-0.5 -0.5q-2 -6 -2 -13q0 -15 12 -25v-1l62 -36h1q20 -9 35 8q9 10 24 21t28.5 11t28.5 -11.5t24 -22t24 -10.5q6 0 12 3v0l65 38q12 10 12 25q0 7 -2 13q-6 13 -6 29q0 26 19 46t46 20h2q18 0 22 25q5 27 5 52q0 26 -5 52v0zM931 173
q-32 -2 -54 -27t-22 -59q0 -16 7 -33l-51 -30q-1 0 -2 1q-24 26 -56 39l1 -1h1h1l8 -4l-3 1q-9 1 -15 1q-21 0 -45 -18q-10 -8 -18 -17q-1 -1 -2 -1v0v0l-49 29q7 16 7 33q0 34 -22.5 59t-54.5 27q-3 22 -3 39q0 16 3 39q32 1 54.5 26t22.5 59q0 16 -7 33l52 30v0h2
q8 -10 18 -17q24 -18 44 -18t43 18q8 5 18 16q1 1 2 1h1l49 -30q-6 -16 -6 -33q0 -34 22 -59t54 -26q4 -23 4 -39q0 -17 -4 -39v0z" />
    <glyph glyph-name="see" unicode="&#xe614;" 
d="M1019 384q-77 139 -213.5 220.5t-293.5 81.5t-293.5 -81.5t-213.5 -220.5q-9 -18 0 -36q77 -139 213.5 -220.5t293.5 -81.5t293.5 81.5t213.5 220.5q9 18 0 36zM512 599q16 0 28.5 -11.5t12.5 -29.5q0 -19 -11 -30t-30 -11q-31 0 -54 -23t-23 -54q0 -16 -11 -28.5
t-30 -12.5q-16 0 -28.5 11.5t-12.5 29.5q4 69 49 114t110 45zM512 123q-130 0 -245.5 64.5t-184.5 176.5q42 68 104.5 120.5t136.5 83.5q-36 -62 -36 -117q0 -93 66.5 -159.5t158.5 -66.5t158.5 66.5t66.5 159.5q0 55 -36 117q74 -31 136.5 -83.5t104.5 -120.5
q-69 -112 -184.5 -176.5t-245.5 -64.5z" />
    <glyph glyph-name="edit" unicode="&#xe615;" 
d="M250 114l202 86l-124 122zM848 589l-127 131l-370 -365l133 -137zM953 746q-34 37 -73 66q-17 12 -34 12t-26 -6l-8 -6l-66 -66l134 -133q56 57 73 76q8 9 8 23t-4 24zM811 46q0 -7 -5 -12t-12 -5h-622q-7 0 -12 5t-5 12v617q0 7 5 12t12 5h396l82 87h-563q-8 0 -14 -6
t-6 -14v-786q0 -8 6 -14t14 -6h792q8 0 14 6t6 14v562l-88 -82v-395z" />
    <glyph glyph-name="cancel" unicode="&#xe616;" 
d="M282 796q107 60 229 60q127 0 238.5 -64t175.5 -178q46 -84 56 -178.5t-14.5 -180.5t-82.5 -161.5t-142 -121.5q-145 -82 -311 -53t-275 155q-10 11 -9 26t12.5 25t26.5 9t25 -12q92 -107 232.5 -131.5t263.5 44.5q71 40 120 103.5t69.5 136.5t12.5 153t-47.5 150.5
t-103.5 120t-136.5 70t-153 12t-150.5 -47.5q-124 -69 -176.5 -201t-10.5 -266q4 -15 -3 -28t-21.5 -17.5t-27.5 2.5t-18 21q-26 79 -20.5 160.5t34 154.5t82 135t125.5 102zM705 348q15 0 25.5 10.5t10.5 25.5t-10.5 25.5t-25.5 10.5h-388q-15 0 -25.5 -10.5t-10.5 -25.5
t10.5 -25.5t25.5 -10.5h388z" />
    <glyph glyph-name="recovery" unicode="&#xe617;" 
d="M425 76q17 0 29 12t12 29v488q0 17 -12 29t-29 12t-29 -12t-12 -29v-488q0 -17 12 -29t29 -12zM934 768h-346v41q0 16 -12 28t-29 12h-41q-17 0 -28.5 -12t-11.5 -28v-41h-346q-17 0 -29 -12t-12 -29t12 -29t29 -12h61v-651q0 -33 23.5 -57t57.5 -24h529q34 0 58 24
t24 57v651h61q17 0 28.5 12t11.5 29t-11.5 29t-28.5 12zM791 76q0 -17 -12 -29t-28 -12h-448q-17 0 -29 12t-12 29v610h529v-610zM628.5 76q16.5 0 28.5 12t12 29v488q0 17 -12 29t-28.5 12t-28.5 -12t-12 -29v-488q0 -17 12 -29t28.5 -12z" />
    <glyph glyph-name="panel" unicode="&#xe601;" 
d="M132 785h760q15 0 25.5 -10t10.5 -24v-734q0 -14 -10.5 -24t-25.5 -10h-760q-15 0 -25.5 10t-10.5 24v734q0 14 10.5 24t25.5 10zM718 199q9 0 15 -6t6 -14q0 -5 -2 -11t-3.5 -7.5t0.5 -3.5h-419q-36 0 -36 22q0 8 6 14t15 6h418zM802.5 678q14.5 0 24.5 -10t10 -24
q0 -15 -10 -25t-24.5 -10t-24.5 10t-10 25q0 14 10 24t24.5 10zM696 678q15 0 25 -10t10 -24q0 -15 -10 -25t-25 -10q-14 0 -24 10t-10 25q0 14 10 24t24 10zM166 571h692v145h-692v-145zM858 529h-692v-476h692v476zM717 304q9 0 15 -6t6 -14.5t-6 -15t-15 -6.5h-418
q-9 0 -15 6.5t-6 15.5q0 20 36 20h403zM720 409q8 0 14.5 -6t6.5 -15t-6.5 -15t-14.5 -6h-419q-8 0 -14.5 6t-6.5 15q0 21 37 21h403z" />
    <glyph glyph-name="member" unicode="&#xe602;" 
d="M956 58q-2 98 -56 178t-141 119q41 32 64 78t23 99q0 93 -65.5 158t-158.5 65q-60 0 -111 -29q-52 29 -112 29q-92 0 -157.5 -65t-65.5 -158q0 -53 23 -99t63 -77q-86 -39 -140 -118t-57 -176l-1 -12q0 -16 11 -26.5t26 -10.5t26 10.5t11 26.5l1 1q0 101 69 175.5
t169 83.5v0q11 -2 23 -2q11 0 22 2v0q98 -9 166.5 -81t71.5 -171v-8q0 -16 11 -26.5t26 -10.5t26 10.5t11 26.5q0 7 -1 9q-1 74 -33.5 139t-87.5 111h15.5t16.5 1q31 3 59 14l-19 -7q36 -15 68.5 -37.5t62.5 -54t48.5 -76t18.5 -94.5v-4l1 -1q0 -16 10.5 -26.5t26 -10.5
t26.5 10.5t11 26.5v0q-1 7 -1 8zM398.5 379q-63.5 0 -108 44.5t-44.5 108t44.5 108.5t108 45t108.5 -45t45 -108.5t-45 -108t-108.5 -44.5zM684 398zM691 401q-10 -4 -17 -11q-2 0 -19 -3t-29 -3h-3h-0.5h-1.5q-24 0 -47 8q49 61 49 140t-50 141q23 8 48 8v0
q62 0 105.5 -43.5t43.5 -105.5q0 -42 -21.5 -77t-57.5 -54z" />
    <glyph glyph-name="lock2" unicode="&#xe604;" 
d="M765 -64h-506q-43 0 -73.5 30.5t-30.5 73.5v362q0 43 30.5 73.5t73.5 30.5h506q43 0 73 -30.5t30 -73.5v-362q0 -43 -30 -73.5t-73 -30.5v0zM259 458q-23 0 -39.5 -16.5t-16.5 -39.5v-362q0 -23 16.5 -39.5t39.5 -16.5h506q23 0 39 16.5t16 39.5v362q0 23 -16 39.5
t-39 16.5h-506zM330 458q-10 0 -17 7t-7 17v146q0 95 55.5 150.5t150.5 55.5t150 -55.5t55 -150.5q0 -10 -7 -17t-17 -7t-17 7t-7 17q0 76 -40.5 117t-117 41t-117 -41t-40.5 -117v-146q0 -10 -7 -17t-17 -7zM578 66h-132v0q-9 0 -15 7q-4 5 -4 12q0 2 1 4l23 100
q-22 16 -35 43.5t-4 61.5q8 31 35.5 50.5t64 19.5t64 -19.5t35.5 -50.5q10 -34 -3 -61.5t-36 -43.5l24 -100v-4q0 -7 -4 -12q-5 -7 -14 -7v0zM469 103h85l-21 90q-3 14 9 21q6 2 13.5 8t16.5 24t4 38q-5 19 -23 30.5t-41.5 11.5t-41 -11.5t-22.5 -30.5q-6 -20 3 -38
t16.5 -24t13.5 -8q13 -7 9 -21z" />
    <glyph glyph-name="setup" unicode="&#xe607;" 
d="M662 -22v0q-26 0 -43 18q-16 18 -43 36.5t-51 18.5q-23 0 -50.5 -18.5t-42.5 -35.5q-17 -17 -42 -17q-12 0 -22 4h-1l-110 62l-1 1q-15 10 -20 28.5t2 34.5q11 22 11 45q0 48 -34.5 82t-82.5 34h-4v0q-14 0 -24.5 11.5t-13.5 30.5q-10 50 -10 87q0 38 10 88
q3 19 13.5 30.5t24.5 11.5h4q48 0 82.5 34t34.5 82q0 22 -11 45q-7 16 -2 34.5t20 28.5l1 1l116 63l1 1q10 4 22 4q25 0 42 -17q16 -17 42.5 -34.5t49.5 -17.5t49 17t42 34q17 17 42 17q12 0 22 -4l1 -1l112 -62l1 -1q15 -10 20 -28.5t-2 -35.5q-11 -23 -11 -44
q0 -48 34.5 -82t82.5 -34h4q14 0 24.5 -11.5t14.5 -30.5q9 -50 9 -88t-9 -87q-4 -20 -14.5 -31t-24.5 -11h-4q-48 0 -82.5 -34t-34.5 -82q0 -22 11 -45q7 -16 2 -34.5t-20 -28.5l-1 -1l-114 -63l-1 -1q-10 -4 -21 -4zM658 32q2 -1 4 -1v0l106 59q-14 33 -14 65
q0 67 46.5 116t113.5 53q8 45 8 76t-8 77q-67 4 -113.5 52.5t-46.5 116.5q0 32 14 65l-104 58h-1q-2 0 -4 -1q-16 -17 -39 -32q-48 -35 -90 -35q-43 0 -91 35q-23 16 -39 33q-2 1 -4 1h-1l-108 -59q14 -33 14 -65q0 -68 -46.5 -116.5t-113.5 -52.5q-8 -45 -8 -76.5t8 -76.5
q67 -4 113.5 -53t46.5 -116q0 -32 -14 -65l102 -58h1q2 0 3 1q17 18 39 35q50 36 93 36q44 0 94 -37q23 -17 39 -35zM525.5 246q-64.5 0 -109.5 45.5t-45 109.5t45 109.5t109.5 45.5t109.5 -45.5t45 -109.5t-45 -109.5t-109.5 -45.5zM525.5 503q-42.5 0 -72.5 -30t-30 -72
t30 -72t72.5 -30t72.5 30t30 72t-30 72t-72.5 30z" />
    <glyph glyph-name="statistics" unicode="&#xe60a;" 
d="M92 -40h837q12 0 20.5 7.5t8.5 18.5t-8.5 19t-20.5 8h-809v768q0 11 -8.5 19t-20 8t-19.5 -8t-8 -19v-795q0 -11 8 -18.5t20 -7.5zM227 167q25 0 42.5 19t17.5 45v0q0 13 -5 25l118 145q8 -3 18 -3v0q26 0 43 21l111 -60q1 -26 18 -45t41.5 -19t42 19t17.5 46v3l155 143
q11 -5 24 -5q25 0 42 18.5t17 45.5t-17 45.5t-42 18.5t-42.5 -18.5t-17.5 -45.5v0q0 -11 4 -21l-145 -134q-16 14 -37 14q-24 0 -42 -18l-113 61q-2 25 -19 42t-40 17q-25 0 -42.5 -18.5t-17.5 -45.5q0 -14 6 -27l-116 -144q-10 4 -21 4q-25 0 -42 -18.5t-17 -45t17 -45.5
t42 -19zM227 167z" />
    <glyph glyph-name="data" unicode="&#xe619;" 
d="M922 794v-564h-820v564h820zM922 896h-820q-42 0 -72 -30t-30 -72v-564q0 -42 30 -72t72 -30h820q42 0 72 30t30 72v564q0 42 -30 72t-72 30zM307 548h103v-261h-103v261zM614 635h103v-353h-103v353zM768 492h102v-210h-102v210zM154 440h102v-153h-102v153zM461 742
h102v-460h-102v460zM410 230h256v-256h-256v256zM819 -77h-568q-23 0 -37 14t-14 37t14 37.5t37 14.5h568q23 0 37 -14.5t14 -37.5t-14 -37t-37 -14z" />
    <glyph glyph-name="folder" unicode="&#xe61e;" 
d="M896 0h-768q-27 0 -45.5 19t-18.5 45v640q0 26 19 45t45 19h320q21 0 39 -15q19 -12 49 -42.5t56 -50.5t48 -20h256q27 0 45.5 -18.5t18.5 -45.5v-512q0 -27 -18.5 -45.5t-45.5 -18.5z" />
    <glyph glyph-name="yes3" unicode="&#xe61f;" 
d="M853 572l-69 69l-378 -379l-166 165l-69 -68l235 -234l69 68v0zM853 572z" />
    <glyph glyph-name="add2" unicode="&#xe620;" 
d="M832 352q0 -13 -9.5 -22.5t-22.5 -9.5h-224v-224q0 -13 -9.5 -22.5t-22.5 -9.5h-64q-13 0 -22.5 9.5t-9.5 22.5v224h-224q-13 0 -22.5 9.5t-9.5 22.5v64q0 13 9.5 22.5t22.5 9.5h224v224q0 13 9.5 22.5t22.5 9.5h64q13 0 22.5 -9.5t9.5 -22.5v-224h224q13 0 22.5 -9.5
t9.5 -22.5v-64z" />
    <glyph glyph-name="play" unicode="&#xe621;" 
d="M325 748l515 -318q22 -16 22 -45.5t-22 -46.5l-515 -317q-20 -16 -40 -0.5t-20 46.5v635q0 30 20 45.5t40 0.5z" />
    <glyph glyph-name="prohibit" unicode="&#xe622;" 
d="M941 566q-38 85 -100 147q-63 62 -148 100q-86 36 -182 36t-181 -36q-85 -38 -147 -100t-100 -147q-36 -85 -36 -181t36.5 -181.5t99.5 -148.5q62 -62 147 -100q84 -36 181 -36q96 0 181.5 36.5t148.5 99.5q62 63 100 148q36 86 36 182t-36 181zM780 326h-536v122h536
v-122z" />
    <glyph glyph-name="lock" unicode="&#xe623;" 
d="M823 450h-68v159q0 101 -71.5 172t-171.5 71t-171.5 -71t-71.5 -172v-159h-68q-25 0 -42.5 -18t-17.5 -42v-438q0 -25 17.5 -42.5t42.5 -17.5h622q25 0 42.5 17.5t17.5 42.5v438q0 24 -17.5 42t-42.5 18zM546 159v-95q0 -8 -8 -8h-52q-8 0 -8 8v95q-18 10 -29.5 27.5
t-11.5 39.5q0 31 22 52.5t53 21.5t53 -21.5t22 -52.5q0 -22 -11.5 -39.5t-29.5 -27.5zM662 450h-299v155q0 62 43.5 106t105.5 44t106 -44t44 -106v-155z" />
    <glyph glyph-name="yes2" unicode="&#xe625;" 
d="M512 896q-104 0 -199 -40.5t-163.5 -109t-109 -163.5t-40.5 -199t40.5 -199t109 -163.5t163.5 -109t199 -40.5t199 40.5t163.5 109t109 163.5t40.5 199t-40.5 199t-109 163.5t-163.5 109t-199 40.5zM820 527l-354 -362q-10 -15 -29 -15q-15 0 -25 10l-176 179
q-11 10 -11 25t10.5 25.5t25.5 10.5t25 -10l150 -153l334 341q10 11 25 11t25 -10v-1q11 -10 11 -25t-11 -26z" />
    <glyph glyph-name="sigh" unicode="&#xe628;" 
d="M512 829q-91 0 -173.5 -35t-142 -94.5t-94.5 -142t-35 -173.5t35 -173.5t94.5 -142t142 -94.5t173.5 -35t173.5 35t142 94.5t94.5 142t35 173.5t-35 173.5t-94.5 142t-142 94.5t-173.5 35zM557 66h-128v382h128v-382zM557 575h-128v127h128v-127z" />
    <glyph glyph-name="eliminate" unicode="&#xe62a;" 
d="M736 0h-576v576h192v192h320v-192h192v-576h-128zM800 512h-192v192h-192v-192h-192v-192h576v192zM800 256h-576v-192h64v128h64v-128h128v128h64v-128h128v128h64v-128h64v192z" />
    <glyph glyph-name="relation" unicode="&#xe62c;" 
d="M725.5 805q-86.5 0 -148.5 -61l-137 -137q-9 -10 -9 -23.5t9 -22.5q10 -9 23.5 -9t22.5 9l137 137h1q41 42 101 42t102 -42t42 -102t-42 -102l-149 -149q-42 -41 -101 -41q-38 0 -71 19t-52 51q-10 17 -15 33q-4 13 -15.5 19.5t-24.5 2.5t-19.5 -16t-2.5 -25
q8 -25 21 -47v0q29 -47 76.5 -74.5t102.5 -27.5q86 0 147 60l149 149q61 61 60.5 148t-61 148t-147 61zM540 207l-137 -137q-42 -42 -102 -42t-102 42v0q-42 41 -42 101.5t42 102.5l147 148q43 41 102.5 41t102.5 -41v-1q11 -11 21 -28q9 -14 14 -32q4 -13 16 -19.5
t24.5 -2.5t19 15.5t3.5 24.5q-8 25 -21 47q-14 23 -31 41q-62 61 -148.5 61t-147.5 -61l-148 -148q-60 -60 -60 -147.5t60 -147.5l2 -2q61 -59 147 -59t146 60v1v0l138 137q9 9 9 22.5t-9 23.5q-10 9 -23.5 9t-22.5 -9z" />
    <glyph glyph-name="img" unicode="&#xe62f;" 
d="M887 896h-750q-12 0 -22.5 -1t-33.5 -8t-39 -20t-29 -41t-13 -67v-750q0 -39 14 -67t34 -41t40.5 -20t34.5 -8l14 -1h750q39 0 67 14.5t41 33t20 42t8 32.5t1 15v750q0 39 -13 67t-29 41t-39 20t-33.5 8t-22.5 1zM956 9q0 -3 -0.5 -7.5t-4 -16.5t-10 -21t-20.5 -16.5
t-34 -7.5l-257 268l-140 -121l-211 195l-211 -195v672q0 20 6 33.5t13 20.5t18 10.5t17 4t15 0.5h750q9 0 15 -0.5t17.5 -4t18 -10.5t12.5 -20.5t6 -33.5v-750v0zM682.5 623q-56.5 0 -96.5 -40t-40 -96.5t40 -97t96.5 -40.5t96.5 40.5t40 97t-40 96.5t-96.5 40z" />
    <glyph glyph-name="close3" unicode="&#xe630;" 
d="M885 673l-83 82l-289 -289l-290 291l-83 -82l291 -291l-290 -290l82 -82l290 289l289 -289l83 83l-289 289z" />
    <glyph glyph-name="keep" unicode="&#xe631;" 
d="M626 782l284 -284v-512h-796v796h512zM568 727v-228h-341v228h-57v-683h113v285h456v-285h113v427l-250 256h-34zM341 270v-227h342v227h-342zM398 725v-170h114v170h-114z" />
    <glyph glyph-name="empty" unicode="&#xe632;" 
d="M456 122h-350q-20 0 -24.5 4t-4.5 22v256q0 13 7 34q34 84 105 251q6 13 12.5 18t19.5 5h459q24 0 34 -21q75 -167 112 -249q9 -21 9 -41v-249q0 -23 -4 -26.5t-26 -3.5h-349v0zM717 424q-19 59 -30 85q-1 4 -7 6.5t-11 2.5h-432q-14 0 -18 -7q-6 -15 -15.5 -47
t-12.5 -40h96q16 0 22.5 -5t6.5 -22q2 -52 42 -88t94 -36t94 36.5t42 87.5q1 16 7 22t21 5q0 -1 49.5 -0.5t51.5 0.5zM456 532h210q13 0 19 5.5t6 18.5v122q0 11 -4.5 15.5t-15.5 4.5h-428q-11 0 -15.5 -4t-4.5 -16v-128q0 -11 5 -15t16 -4q70 1 212 1zM91 424
q11 0 27.5 -0.5t28.5 -0.5t23 1q4 0 9 6t7 12q26 70 21 130q-1 13 -1 28t0.5 34t0.5 30q0 13 -2 20q-3 0 -5 1q-71 -169 -109 -261zM822 424q-17 38 -55 122.5t-59 130.5q-3 0 -5 -2q0 -3 -1 -8.5t-1 -9.5q0 -9 0.5 -25.5t0.5 -30.5t-1 -26q-4 -54 22 -133q4 -12 9.5 -16.5
t16.5 -3.5q24 2 73 2zM404 35q-41 -78 -104 -111q-15 -7 -24 -5q-28 3 -44 7q-19 5 -30 -9t-23 -14q-59 5 -112 32q62 0 104 43q24 23 48 60q7 9 12 10.5t15 -3.5q29 -13 62 -16q30 -1 96 6zM867 614q44 9 50 11q6 3 12.5 8t15 12t12.5 10q-19 -70 -74 -82q-21 41 -25 88z
M211 865l3 -18t4 -18q1 -5 6.5 -15.5t7.5 -16.5v-7t-1.5 -8t-2.5 -9q-18 21 -23 46.5t6 45.5z" />
    <glyph glyph-name="copy" unicode="&#xe633;" 
d="M832 688h-496q-53 0 -90.5 -37.5t-37.5 -90.5v-496q0 -53 37.5 -90.5t90.5 -37.5h496q53 0 90.5 37.5t37.5 90.5v496q0 53 -37.5 90.5t-90.5 37.5zM896 64q0 -26 -19 -45t-45 -19h-496q-26 0 -45 19t-19 45v496q0 26 19 45t45 19h496q26 0 45 -19t19 -45v-496zM750 768
q14 0 23 9.5t9 22.5t-9 22.5t-23 9.5h-542q-59 0 -101.5 -42t-42.5 -102v-542q0 -14 9.5 -23t22.5 -9t22.5 9t9.5 23v542q0 33 23.5 56.5t56.5 23.5h542zM744 344h-130v130q0 13 -9 22.5t-22.5 9.5t-23 -9.5t-9.5 -22.5v-130h-129q-13 0 -22.5 -9.5t-9.5 -22.5t9.5 -22.5
t22.5 -9.5h129v-130q0 -13 9.5 -22.5t23 -9.5t22.5 9.5t9 22.5v130h130q13 0 22.5 9.5t9.5 22.5t-9.5 22.5t-22.5 9.5z" />
    <glyph glyph-name="download" unicode="&#xe634;" 
d="M829 2h-639q-53 0 -90.5 37.5t-37.5 90.5v159q0 14 9.5 23t22.5 9h64q13 0 22.5 -9t9.5 -23v-95q0 -27 19 -45.5t45 -18.5h511q27 0 45.5 18.5t18.5 45.5v95q0 14 9.5 23t22.5 9h64q13 0 22.5 -9t9.5 -23v-159q0 -53 -37.5 -90.5t-90.5 -37.5zM250 628q10 10 23.5 10
t23.5 -10l149 -148v321q0 13 9 22.5t23 9.5h64q13 0 22 -9.5t9 -22.5v-321l149 148q10 10 24 10t23 -10l47 -46q10 -10 10 -23.5t-10 -23.5l-264 -264q-1 -1 -6.5 -4t-16 -6.5t-19.5 -3.5t-20 3.5t-16.5 6.5t-6.5 4l-264 264q-10 10 -10 23.5t10 23.5z" />
    <glyph glyph-name="add" unicode="&#xe635;" 
d="M511 833q-91 0 -174 -35.5t-143.5 -95.5t-96 -143t-35.5 -174t35.5 -174t96 -143t143.5 -96t174 -36t174 36t143 96t95.5 143t35.5 174t-35.5 174t-95.5 143t-143 95.5t-174 35.5zM780 334h-220v-219h-102v219h-219v102h219v219h102v-219h220v-102z" />
    <glyph glyph-name="update" unicode="&#xe636;" 
d="M722 582q-70 60 -146 89.5t-141.5 28.5t-129 -16.5t-113 -42t-87.5 -52.5t-58.5 -43.5t-20.5 -18.5q78 133 166.5 214.5t167.5 106t156.5 21.5t139 -30.5t109.5 -58.5t74 -54.5t26 -25.5l132 125v-440h-439zM302 186q70 -60 146 -89.5t142 -28.5t129.5 16.5t113 42
t87.5 52.5t58 43.5t20 18.5q-78 -133 -166 -214.5t-167 -106t-156.5 -22t-139.5 31t-109.5 59t-74 54.5t-25.5 25l-134 -125v401h441z" />
    <glyph glyph-name="money" unicode="&#xe637;" 
d="M896 642v30q0 66 -47 113t-113 47h-511q-67 0 -114 -47t-47 -113v-576q0 -66 44 -113t107 -47h594q63 0 107 47t44 113v416q0 40 -17 74t-47 56zM896 96q0 -40 -25.5 -68t-61.5 -28h-594q-36 0 -61.5 28t-25.5 68v576q0 40 28.5 68t68.5 28h511q40 0 68 -28t28 -68v-2
q-15 2 -23 2h-521q-13 0 -22.5 -9.5t-9.5 -22.5t9.5 -22.5t22.5 -9.5h521q36 0 61.5 -28t25.5 -68v-416zM672 256q13 0 22.5 9.5t9.5 22.5t-9.5 22.5t-22.5 9.5h-128v23q16 6 28 16l120 96q10 8 11.5 21.5t-6.5 23.5t-21.5 11.5t-23.5 -6.5l-120 -96q-9 -7 -20 -7t-20 7
l-120 96q-10 8 -23.5 6.5t-21.5 -11.5t-6.5 -23.5t11.5 -21.5l120 -96q12 -10 28 -16v-23h-128q-13 0 -22.5 -9.5t-9.5 -22.5t9.5 -22.5t22.5 -9.5h128v-64h-128q-13 0 -22.5 -9.5t-9.5 -22.5t9.5 -22.5t22.5 -9.5h128v-32q0 -13 9.5 -22.5t22.5 -9.5t22.5 9.5t9.5 22.5v32
h128q13 0 22.5 9.5t9.5 22.5t-9.5 22.5t-22.5 9.5h-128v64h128z" />
    <glyph glyph-name="reset" unicode="&#xe638;" horiz-adv-x="1025" 
d="M922 340q2 19 16.5 31.5t34.5 12.5q23 0 38.5 -17.5t12.5 -39.5q-14 -127 -85 -231t-183 -164t-242 -60q-112 0 -212.5 46t-170 123t-105 182.5t-23.5 218.5q19 172 142.5 298.5t295.5 150.5q36 5 73 5q103 0 195.5 -38.5t163.5 -108.5v96q0 21 15 36t36.5 15t36.5 -15
t15 -36v-197q0 -1 0.5 -2t0.5 -2v-8q0 -15 -8.5 -27t-22.5 -17q-11 -5 -21 -5q-2 0 -5 1l-3 1h-202q-20 0 -34 14t-14 33v8q0 19 14 33t34 14h70q-117 103 -271 103q-34 0 -67 -6q-134 -21 -230.5 -121.5t-111.5 -235.5q-10 -91 18.5 -175.5t84.5 -146t136 -98.5t170 -37
q104 0 194 48.5t146.5 132t67.5 185.5zM513.5 640q63.5 0 109 -45t45.5 -109v-51q21 0 36 -15t15 -36v-205q0 -21 -15 -36t-36 -15h-308q-22 0 -37 15t-15 36v205q0 21 15 36t37 15v51q0 64 45 109t108.5 45zM513.5 230q21.5 0 36.5 15t15 36.5t-15 36.5t-36.5 15t-36.5 -15
t-15 -36.5t15 -36.5t36.5 -15zM565 435v51q0 22 -15 37t-36.5 15t-36.5 -15t-15 -37v-51h103z" />
    <glyph glyph-name="security" unicode="&#xe648;" 
d="M512 -51q-49 0 -114 34.5t-123 88t-98 126t-40 139.5v376l37 1q8 0 26 1.5t62 10.5t82 24q91 37 146 77l22 16l22 -16q55 -40 146 -77q38 -15 82 -24t62 -10.5t26 -1.5l37 -1v-376q0 -67 -40 -139.5t-98 -126t-123 -88t-114 -34.5v0zM213 641v-304q0 -52 34.5 -110
t82.5 -101.5t98.5 -72.5t83.5 -29t83.5 29t98.5 72.5t82.5 101.5t34.5 110v304q-85 9 -160 39q-75 31 -139 71q-63 -40 -139 -71q-75 -30 -160 -39v0zM492 196l-159 135l49 57l102 -86l194 222l57 -50z" />
    <glyph glyph-name="batch" unicode="&#xe61a;" 
d="M205 38h614v-52h-614v52zM516.5 730q65.5 0 111.5 -45t46 -108q0 -40 -20.5 -75.5t-56.5 -56.5l-22 -13l-3 -26l-9 -82l-5 -56h252q9 -17 9 -40v-81q0 -19 -7 -33h-600q-7 14 -7 33v81q0 23 9 40h247v51l-1 82v29l-25 15q-36 21 -56.5 56.5t-20.5 75.5q0 63 46.5 108
t112 45zM516.5 782q-86.5 0 -148 -60t-61.5 -145q0 -54 27.5 -101t74.5 -75l1 -82h-205q-24 0 -37.5 -30t-13.5 -61v-81q0 -31 13 -57.5t38 -26.5h614q25 0 38 26.5t13 57.5v81q0 31 -13.5 61t-37.5 30h-205l9 82q47 27 75 74.5t28 101.5q0 85 -61.5 145t-148 60z" />
    <glyph glyph-name="achievements" unicode="&#xe61b;" 
d="M810 768h-510q-33 0 -51.5 -31.5t-18.5 -71.5v-512h52v512q0 4 -0.5 11t-0.5 11.5t0.5 11t1.5 10.5t3 7.5t6 5.5t8 2h510q18 0 30.5 -12.5t12.5 -30.5v-594q0 -18 -12.5 -30.5t-30.5 -12.5h-596q-18 0 -30.5 12.5t-12.5 30.5v167h-43v-167q0 -35 25.5 -61t60.5 -26h596
q35 0 60.5 26t25.5 61v594q0 35 -25.5 61t-60.5 26zM486 563v-51l-99 -5l-3 56h102zM538 614h-205v-153h205v153zM589 614h205v-51h-205v51zM589 512h205v-51h-205v51zM333 307h461v-51h-461v51zM333 205h461v-52h-461v52zM333 409h461v-51h-461v51z" />
    <glyph glyph-name="hr" unicode="&#xe61c;" 
d="M376 493q0 -9 5.5 -14.5t13.5 -5.5v0q4 -41 32.5 -73t66 -32t66 32t31.5 73h1q8 0 13.5 5.5t5.5 14.5q0 13 -11 18q5 18 5 37q0 49 -27 83t-67 34q-43 0 -86.5 -35.5t-43.5 -81.5q0 -19 6 -37q-11 -5 -11 -18zM364 256h294q7 0 7 6v23q0 3 -2 5q-43 43 -100 57q-2 1 -3 1
h-3q-2 0 -3 -1q-18 -9 -42.5 -9t-42.5 9q-1 1 -3 1h-2h-2q-58 -14 -102 -58q-2 -2 -2 -4v-24q0 -6 6 -6zM812 657l-104 104q-7 7 -17 7v0h-462q-10 0 -17 -7.5t-7 -17.5v-718q0 -10 7 -17.5t17 -7.5h566q10 0 17 7.5t7 17.5v615q0 10 -7 17zM253 49v670h424v-79
q0 -6 4 -10.5t10 -4.5h80v-576h-518zM359 154v51h306v-51h-306z" />
    <glyph glyph-name="index" unicode="&#xe61d;" 
d="M941 378l-429 396l-429 -395q-6 -6 -6 -15q0 -8 5 -14q7 -6 16 -6q8 0 14 5l400 368l400 -369q6 -5 14 -5q9 0 16 6q5 6 5 14q0 9 -6 15v0zM809.5 370q-8.5 0 -14.5 -6t-6 -14v-315h-166v219h-222v-219h-166v315q0 8 -6 14t-15 6t-15 -6t-6 -14v-356h250v219h138v-219
h249v356q1 8 -5.5 14t-15 6zM664 664h125v-110q0 -8 6 -14t14.5 -6t15 6t6.5 14v151h-167q-8 0 -14 -6t-6 -14.5t6 -14.5t14 -6zM221 27h192v209h186v-209h207v324h114l-408 382l-423 -376l131 -6z" />
    <glyph glyph-name="system" unicode="&#xe624;" 
d="M310 208h-209v531h745v-140l48 -27v215h-846v-630h262v51zM240 79v-54h200l-57 54h-143zM763 -19q-18 0 -29 12.5t-29.5 25t-34.5 12.5t-35 -12.5t-29 -24.5q-11 -12 -29 -12v0q-8 0 -15 3v1l-75 41l-1 1q-10 7 -13.5 19.5t1.5 23.5q7 16 7 31q0 32 -23 55.5t-56 23.5h-3
h-1q-9 0 -16 7.5t-9 20.5q-7 35 -7 60q0 26 7 60q2 13 9.5 20.5t16.5 7.5h3q33 0 56 23.5t23 55.5q0 15 -7 31q-5 11 -1.5 23.5t13.5 19.5l1 1l79 43h1q6 3 14 3v0q18 0 29 -12q11 -11 29 -23t33.5 -12t33.5 12t29 23t29 11q8 0 14 -3h1l76 -42l1 -1q10 -7 13.5 -19.5
t-1.5 -23.5q-7 -18 -7 -31q0 -32 23.5 -55.5t56.5 -23.5h2q10 0 17 -7.5t10 -20.5q6 -35 6 -60q0 -27 -6 -60q-3 -13 -10 -20.5t-17 -7.5h-2q-33 0 -56.5 -23.5t-23.5 -55.5q0 -14 7 -31q5 -11 1.5 -23.5t-13.5 -19.5l-1 -1l-77 -42l-1 -1q-7 -3 -14 -3v0v0zM753 37h2h1
l66 37q-9 21 -9 41q0 42 29.5 73t71.5 33q5 28 5 47.5t-5 48.5q-42 2 -71.5 33t-29.5 73q0 20 9 41l-65 37h-1q-1 0 -2 -1q-10 -10 -24 -20q-31 -22 -57 -22q-27 0 -58 22q-14 10 -24 21q-1 1 -3 1v0l-68 -38q9 -21 9 -41q0 -42 -29.5 -73t-71.5 -33q-5 -28 -5 -48t5 -48
q42 -2 71.5 -33t29.5 -73q0 -20 -9 -41l64 -36v0h3q10 11 24 22q31 23 59 23q27 0 58 -24q15 -10 25 -22v0zM669.5 164q-43.5 0 -74.5 31t-31 74.5t31 74.5t74.5 31t74.5 -31t31 -74.5t-31 -74.5t-74.5 -31zM669.5 334q-26.5 0 -45 -19t-18.5 -45.5t18.5 -45.5t45 -19
t45.5 19t19 45.5t-19 45.5t-45.5 19z" />
  </font>
</defs>
</svg>
